<?xml version="1.0" standalone="no"?>
<!DOCTYPE svg PUBLIC "-//W3C//DTD SVG 20010904//EN"
 "http://www.w3.org/TR/2001/REC-SVG-20010904/DTD/svg10.dtd">
<svg version="1.0" xmlns="http://www.w3.org/2000/svg"
 width="109.000000pt" height="109.000000pt" viewBox="0 0 109.000000 109.000000"
 preserveAspectRatio="xMidYMid meet">
<metadata>
Created by potrace 1.14, written by Peter Selinger 2001-2017
</metadata>
<g transform="translate(0.000000,109.000000) scale(0.100000,-0.100000)"
fill="#000000" stroke="none">
<path d="M425 1016 c-209 -51 -365 -250 -365 -466 0 -110 32 -201 105 -299 45
-58 49 -62 85 -59 21 1 45 -4 53 -10 7 -7 17 -8 21 -4 4 4 7 3 5 -3 -1 -5 1
-18 4 -27 4 -10 9 -25 11 -32 6 -19 74 -32 88 -18 7 7 6 10 -3 9 -8 -1 -16 3
-18 8 -2 6 -11 15 -20 22 -9 7 -11 13 -6 13 6 0 3 5 -5 10 -25 16 10 12 39 -4
18 -10 30 -11 42 -3 10 6 24 7 35 2 17 -8 15 -9 -9 -13 -57 -7 -12 -22 69 -22
66 0 86 -3 90 -15 4 -8 11 -15 17 -15 5 0 2 9 -8 20 -17 18 -17 20 -1 20 9 0
29 -7 44 -16 l27 -16 -25 21 c-19 16 -21 21 -8 21 9 0 25 3 35 6 12 4 14 3 6
-3 -7 -5 -9 -14 -5 -20 6 -9 15 -9 37 3 40 21 41 21 19 45 l-19 22 28 -18 c16
-10 27 -13 27 -6 0 6 8 12 18 12 9 1 2 4 -16 8 -33 6 -45 23 -20 29 9 2 8 0
-2 -8 -12 -9 -12 -11 -1 -8 8 2 15 12 17 21 2 14 -2 16 -19 11 -19 -6 -19 -4
5 15 14 11 31 21 37 21 15 0 34 -39 27 -56 -11 -29 11 -13 46 34 107 141 135
293 83 448 -30 90 -57 135 -120 196 -114 113 -293 162 -450 124z m177 -266
c32 -9 62 -40 38 -40 -6 0 -10 -11 -10 -25 0 -14 -2 -25 -4 -25 -2 0 -13 -3
-23 -6 -14 -5 -15 -4 -4 4 11 8 3 12 -32 17 -54 8 -80 29 -46 38 16 4 19 11
14 26 -7 24 8 27 67 11z m-52 -105 c0 -8 15 -17 34 -20 23 -5 36 -14 39 -27 5
-17 2 -19 -21 -14 -15 4 -39 8 -54 9 -31 2 -33 5 -24 48 6 29 26 32 26 4z
m-60 -25 c0 -5 -8 -10 -17 -10 -15 0 -16 2 -3 10 19 12 20 12 20 0z m181 -17
c-11 -4 -11 -7 0 -14 11 -6 11 -12 -1 -33 -18 -34 -30 -33 -30 2 0 20 3 23 10
12 5 -8 12 -11 16 -7 4 4 2 13 -4 19 -17 17 -15 28 6 27 12 0 13 -2 3 -6z
m-97 -45 c-6 -9 -44 -11 -44 -2 0 4 8 13 17 20 18 13 38 0 27 -18z m-4 -34 c0
-2 -17 -4 -37 -4 -24 0 -33 3 -25 9 12 7 62 4 62 -5z m-170 -69 c0 -2 -10 -10
-22 -16 -21 -11 -22 -11 -9 4 13 16 31 23 31 12z m-26 -63 c36 -57 88 -105 98
-89 10 17 59 21 52 4 -3 -8 2 -14 10 -14 8 0 13 4 10 9 -3 4 6 12 19 17 28 11
47 56 40 94 -5 25 -4 25 38 21 24 -3 58 -11 74 -19 17 -8 42 -19 57 -24 17 -6
36 -27 49 -52 20 -41 21 -43 3 -56 -10 -7 -24 -11 -31 -9 -7 3 -12 0 -10 -7 1
-7 -6 -11 -15 -11 -13 1 -18 -6 -18 -27 0 -16 -4 -29 -10 -29 -5 0 -7 -6 -4
-14 5 -14 -32 -33 -43 -22 -3 3 -12 -1 -20 -9 -17 -18 -76 -20 -104 -4 -31 16
-56 44 -51 57 6 20 -17 40 -38 35 -24 -6 -63 33 -109 111 -36 59 -61 87 -36
39 8 -15 25 -53 38 -84 14 -31 41 -74 61 -96 23 -26 32 -43 25 -50 -13 -13
-100 28 -94 45 3 7 1 11 -4 8 -4 -3 -21 32 -36 77 -16 45 -39 92 -52 105 l-23
23 23 9 c50 20 71 12 101 -38z m-86 -30 c6 -15 14 -38 17 -51 6 -21 5 -23 -11
-16 -11 4 -34 10 -52 13 -32 4 -33 6 -30 46 2 25 8 40 15 39 8 -2 10 4 6 13
-5 15 -4 15 19 0 14 -9 31 -29 36 -44z m26 -115 c11 -43 8 -59 -11 -48 -10 5
-35 7 -56 5 -25 -3 -36 -1 -32 6 3 6 11 8 16 5 15 -10 10 7 -8 29 -10 12 -11
15 -3 9 8 -7 23 -13 35 -12 l20 0 -20 9 c-12 4 -27 15 -34 24 -11 14 -11 16 2
16 9 0 19 -4 22 -10 3 -5 16 -15 28 -21 21 -12 21 -11 5 8 -25 28 -22 36 6 18
13 -9 27 -26 30 -38z"/>
<path d="M518 263 c6 -2 18 -2 25 0 6 3 1 5 -13 5 -14 0 -19 -2 -12 -5z"/>
<path d="M830 246 c0 -2 8 -10 18 -17 15 -13 16 -12 3 4 -13 16 -21 21 -21 13z"/>
<path d="M255 164 c36 -28 55 -36 50 -21 -3 7 -20 18 -38 25 -30 11 -31 10
-12 -4z"/>
<path d="M510 100 c-11 -7 -7 -8 17 -4 18 4 47 1 65 -5 23 -8 29 -8 21 0 -15
15 -85 22 -103 9z"/>
</g>
</svg>
